{"title":"Steve.Jobs.2015.DVDScr.XVID.AC3.HQ.Hive-CM8","uid":13059499,"size":1776746879,"categoryP":"video","categoryS":"movies","magnet":"?xt=urn:btih:71e7f0b4d6a158bb8f249352673ffbd977ed9021&amp;dn=Steve.Jobs.2015.DVDScr.XVID.AC3.HQ.Hive-CM8&amp;tr=udp%3A%2F%2Ftracker.leechers-paradise.org%3A6969&amp;tr=udp%3A%2F%2Fzer0day.ch%3A1337&amp;tr=udp%3A%2F%2Fopen.demonii.com%3A1337&amp;tr=udp%3A%2F%2Ftracker.coppersurfer.tk%3A6969&amp;tr=udp%3A%2F%2Fexodus.desync.com%3A6969","seeders":0,"leechers":0,"uploader":"TvTeam","files":4,"time":1450698709,"description":"------------------------------------------------------------------------\r\n\r  https://www.torrenting.com\r\n\r\nSign up is OPEN - for time being. Come and have fun.\r\n\r\n------------------------------------------------------------------------[center][img]http://img907.imageshack.us/img907/234/lpuC4p.jpg[/img]\r\n\r\n \r\n[color=blue][size=4][b]Steve.Jobs.2015.DVDScr.XVID.AC3.HQ.Hive-CM8[/b][/size][/color]\r\n\r\nThx Hive\r\n\r\nCM8 Doing It Right The First Time \r\n\r\nSource: DVD-Screener Big THX m8\r\n\r\nNotes:\r\nDVDScreener 6 of 40\r\nwill do them all one after each other, 6th hot title\r\n\r\nEncode:\r\nquality was perfect on this.\r\nAll digital watermarks are removed.\r\nFixed brightness,contrast and rgb, and added sharpness.\r\n\r\ngot very nice\r\nenjoy\r\n\r\nVideo: 720x304 @bitrate 1700 2pass\r\nAudio: English AC3 2.0 Stereo\r\nSample: yes included\r\n\r\n \nhttp://www.imdb.com/title/tt2080374/\r\n\r\n\r\nGeneral\r\nComplete name                  : Steve.Jobs.2015.DVDScr.XVID.AC3.HQ.Hive-CM8.avi\r\nFormat                         : AVI\r\nFormat/Info                    : Audio Video Interleave\r\nFile size                      : 1.64 GiB\r\nDuration                       : 2h 2mn\r\nOverall bit rate               : 1 924 Kbps\r\nWriting application            : Nandub v1.0rc2\r\nWriting library                : Nandub build 1853/release\r\n\r\nVideo\r\nID                             : 0\r\nFormat                         : MPEG-4 Visual\r\nFormat profile                 : Advanced   \r\nFormat settings, BVOP          : 2\r\nFormat settings, QPel          : Yes\r\nFormat settings, GMC           : No warppoints\r\nFormat settings, Matrix        : Default (H.263)\r\nMuxing mode                    : Packed bitstream\r\nCodec ID                       : XVID\r\nCodec ID/Hint                  : XviD\r\nDuration                       : 2h 2mn\r\nBit rate                       : 1 656 Kbps\r\nWidth                          : 720 pixels\r\nHeight                         : 304 pixels\r\nDisplay aspect ratio           : 2.35:1\r\nFrame rate                     : 29.970 fps\r\nColor space                    : YUV\r\nChroma subsampling             : 4:2:0\r\nBit depth                      : 8 bits\r\nScan type                      : Progressive\r\nCompression mode               : Lossy\r\nBits/(Pixel*Frame)             : 0.252\r\nStream size                    : 1.41 GiB (86%)\r\nWriting library                : XviD 1.2.1 (UTC 2008-12-04)\r\n\r\nAudio\r\nID                             : 1\r\nFormat                         : AC-3\r\nFormat/Info                    : Audio Coding 3\r\nMode extension                 : CM (complete main)\r\nFormat settings, Endianness    : Big\r\nCodec ID                       : 2000\r\nDuration                       : 2h 2mn\r\nBit rate mode                  : Constant\r\nBit rate                       : 256 Kbps\r\nChannel(s)                     : 2 channels\r\nChannel positions              : Front: L R\r\nSampling rate                  : 48.0 KHz\r\nBit depth                      : 16 bits\r\nCompression mode               : Lossy\r\nDelay relative to video        : 28ms\r\nStream size                    : 224 MiB (13%)\r\nAlignment                      : Split accross interleaves\r\nInterleave, duration           : 33 ms (1.00 video frame)\r\nInterleave, preload duration   : 500 ms\r\n\r\n\r\nScreens \r\n\r\n[img]http://img910.imageshack.us/img910/1184/D9ECoc.png[/img]\r\n[img]http://img907.imageshack.us/img907/9361/3s5jsP.png[/img]\r\n[img]http://img905.imageshack.us/img905/486/sP9ebk.png[/img]\r\n[img]http://img905.imageshack.us/img905/885/v37wN3.png[/img]\r\n[img]http://img903.imageshack.us/img903/6113/kBY518.png[/img]\r\n[img]http://img633.imageshack.us/img633/5980/kBY6Pn.png[/img]\r\n\r\n\r\n\r\nPlot\r\n\r\nSteve Jobs takes us behind the scenes of the digital revolution, to paint a portrait of the man at its epicenter. \r\nThe story unfolds backstage at three iconic product launches, ending in 1998 with the unveiling of the iMac.\r\n\r\n\r\nCast\r\n\r\nMichael Fassbender ... \tSteve Jobs\r\nKate Winslet \t   ... \tJoanna Hoffman\r\nSeth Rogen \t   ... \tSteve Wozniak\r\nJeff Daniels \t   ... \tJohn Sculley \r\n\r\n\r\nSugarB,iNCOMiNG,Izzy,MenaceIISociety,jiinx,SiMPLE,CherryBomb,bigguy79\r\nranbailey,ViSiON,UnKnOwN,YanKeeS,COPYxRIGHT,THC,VAiN,ACAB,DRs\r\nLKRG,Kingstoner,SiMPLE,TiTAN,cadance,PLAYNOW\r\nUnevano,BigVik,Rapeseed,SAFC,goldadvance,KaN1vE,Pinnz,Wayne,HiGH\r\nSeeN,jtr,Limey,ICONiK,TED,rkofan,mrtoke09\r\nMr Hive\r\n\r\nWONDER WHERE ALL THE OLD DDD FOLKS ARE DONT BE SCARED MESSAGE ME \r\n\r\nsupport the producer and watch it in cinema as intended on the big screen \r\n\r\n\r\n\r\nLOOKING FOR ANYTHING YOU WANT TO LOOK AND SOUND BETTER\r\n\r\nCOME FIND US WE DONT BITE \r\n  [/center]","torrent":{"xt":"urn:btih:71e7f0b4d6a158bb8f249352673ffbd977ed9021","amp;dn":"Steve.Jobs.2015.DVDScr.XVID.AC3.HQ.Hive-CM8","amp;tr":["udp%3A%2F%2Ftracker.leechers-paradise.org%3A6969","udp%3A%2F%2Fzer0day.ch%3A1337","udp%3A%2F%2Fopen.demonii.com%3A1337","udp%3A%2F%2Ftracker.coppersurfer.tk%3A6969","udp%3A%2F%2Fexodus.desync.com%3A6969"],"infoHash":"71e7f0b4d6a158bb8f249352673ffbd977ed9021","infoHashBuffer":{"type":"Buffer","data":[113,231,240,180,214,161,88,187,143,36,147,82,103,63,251,217,119,237,144,33]},"announce":[],"urlList":[]}}